<mxfile host="app.diagrams.net" agent="Mozilla/5.0 (Windows NT 10.0; Win64; x64) AppleWebKit/537.36 (KHTML, like Gecko) Chrome/137.0.0.0 Safari/537.36 Edg/137.0.0.0" version="27.1.6">
  <diagram id="dMFPq8Ma2SvLUkesaSkS" name="Page-1">
    <mxGraphModel dx="1668" dy="894" grid="1" gridSize="10" guides="1" tooltips="1" connect="1" arrows="1" fold="1" page="1" pageScale="1" pageWidth="1169" pageHeight="827" background="light-dark(#FFFFFF,#F7F7F7)" math="0" shadow="0">
      <root>
        <mxCell id="0" />
        <mxCell id="1" parent="0" />
        <mxCell id="d45avjFu-AIYiAAqqC4H-20" value="" style="edgeStyle=elbowEdgeStyle;elbow=horizontal;endArrow=classic;html=1;curved=0;rounded=1;endSize=8;startSize=8;fontSize=12;entryDx=0;entryDy=0;entryPerimeter=0;labelBackgroundColor=none;strokeColor=#788AA3;fontColor=default;exitX=0.65;exitY=0.578;exitDx=0;exitDy=0;exitPerimeter=0;" parent="1" edge="1">
          <mxGeometry width="50" height="50" relative="1" as="geometry">
            <mxPoint x="40" y="400" as="sourcePoint" />
            <mxPoint x="40" y="400" as="targetPoint" />
            <Array as="points" />
          </mxGeometry>
        </mxCell>
        <mxCell id="d45avjFu-AIYiAAqqC4H-77" value="" style="endArrow=classic;html=1;rounded=1;fontSize=12;startSize=8;endSize=8;curved=1;entryX=-0.027;entryY=0.516;entryDx=0;entryDy=0;labelBackgroundColor=none;strokeColor=#788AA3;fontColor=default;entryPerimeter=0;exitX=1.017;exitY=0.725;exitDx=0;exitDy=0;exitPerimeter=0;" parent="1" edge="1" target="UK6CqygBZyEi8A3h2Iro-12" source="PbpaKHzW4S6jHEZwpi4d-8">
          <mxGeometry width="50" height="50" relative="1" as="geometry">
            <mxPoint x="81" y="299" as="sourcePoint" />
            <mxPoint x="401" y="299.05999999999995" as="targetPoint" />
          </mxGeometry>
        </mxCell>
        <mxCell id="UK6CqygBZyEi8A3h2Iro-17" value="c_s_eff" style="edgeLabel;html=1;align=center;verticalAlign=middle;resizable=0;points=[];fontColor=light-dark(#46495D,#46495D);labelBackgroundColor=light-dark(#D9D9D9,#DBDBDB);" parent="d45avjFu-AIYiAAqqC4H-77" vertex="1" connectable="0">
          <mxGeometry x="0.7231" y="-2" relative="1" as="geometry">
            <mxPoint x="-36" y="-2" as="offset" />
          </mxGeometry>
        </mxCell>
        <mxCell id="d45avjFu-AIYiAAqqC4H-79" value="" style="endArrow=classic;html=1;rounded=1;fontSize=12;startSize=8;endSize=8;curved=1;entryX=-0.02;entryY=0.62;entryDx=0;entryDy=0;labelBackgroundColor=none;strokeColor=#788AA3;fontColor=default;entryPerimeter=0;exitX=0.997;exitY=0.868;exitDx=0;exitDy=0;exitPerimeter=0;" parent="1" edge="1" target="UK6CqygBZyEi8A3h2Iro-12" source="PbpaKHzW4S6jHEZwpi4d-8">
          <mxGeometry width="50" height="50" relative="1" as="geometry">
            <mxPoint x="71" y="340" as="sourcePoint" />
            <mxPoint x="398.97" y="331" as="targetPoint" />
          </mxGeometry>
        </mxCell>
        <mxCell id="UK6CqygBZyEi8A3h2Iro-18" value="t_s_eff" style="edgeLabel;html=1;align=center;verticalAlign=middle;resizable=0;points=[];fontColor=light-dark(#46495D,#46495D);labelBackgroundColor=light-dark(#D9D9D9,#DBDBDB);" parent="d45avjFu-AIYiAAqqC4H-79" vertex="1" connectable="0">
          <mxGeometry x="0.7583" relative="1" as="geometry">
            <mxPoint x="-30" y="2" as="offset" />
          </mxGeometry>
        </mxCell>
        <mxCell id="PbpaKHzW4S6jHEZwpi4d-8" value="Initial Conditions" style="rounded=1;whiteSpace=wrap;html=1;labelBackgroundColor=none;fillColor=light-dark(#B2C9AB,#CCFFCC);strokeColor=#788AA3;fontColor=light-dark(#46495D,#46495D);" parent="1" vertex="1">
          <mxGeometry x="121" y="140" width="70" height="220" as="geometry" />
        </mxCell>
        <mxCell id="PbpaKHzW4S6jHEZwpi4d-22" value="" style="endArrow=classic;html=1;rounded=1;fontSize=12;startSize=8;endSize=8;curved=1;labelBackgroundColor=none;strokeColor=#788AA3;fontColor=default;verticalAlign=middle;entryX=-0.037;entryY=0.257;entryDx=0;entryDy=0;entryPerimeter=0;exitX=1.01;exitY=0.361;exitDx=0;exitDy=0;exitPerimeter=0;" parent="1" edge="1" target="UK6CqygBZyEi8A3h2Iro-12" source="PbpaKHzW4S6jHEZwpi4d-8">
          <mxGeometry width="50" height="50" relative="1" as="geometry">
            <mxPoint x="81" y="220" as="sourcePoint" />
            <mxPoint x="398.54999999999995" y="219.58000000000015" as="targetPoint" />
          </mxGeometry>
        </mxCell>
        <mxCell id="PbpaKHzW4S6jHEZwpi4d-23" value="T3" style="edgeLabel;html=1;align=center;verticalAlign=middle;resizable=0;points=[];fontColor=light-dark(#46495D,#46495D);labelBackgroundColor=light-dark(#D9D9D9,#DBDBDB);" parent="PbpaKHzW4S6jHEZwpi4d-22" vertex="1" connectable="0">
          <mxGeometry x="0.32" relative="1" as="geometry">
            <mxPoint x="-34" as="offset" />
          </mxGeometry>
        </mxCell>
        <mxCell id="PbpaKHzW4S6jHEZwpi4d-30" value="" style="endArrow=classic;html=1;rounded=1;fontSize=12;startSize=8;endSize=8;curved=1;labelBackgroundColor=none;strokeColor=#788AA3;fontColor=default;verticalAlign=middle;entryX=-0.02;entryY=0.064;entryDx=0;entryDy=0;entryPerimeter=0;exitX=0.976;exitY=0.093;exitDx=0;exitDy=0;exitPerimeter=0;" parent="1" target="UK6CqygBZyEi8A3h2Iro-12" edge="1" source="PbpaKHzW4S6jHEZwpi4d-8">
          <mxGeometry width="50" height="50" relative="1" as="geometry">
            <mxPoint x="71" y="160" as="sourcePoint" />
            <mxPoint x="201" y="160" as="targetPoint" />
          </mxGeometry>
        </mxCell>
        <mxCell id="PbpaKHzW4S6jHEZwpi4d-31" value="P1" style="edgeLabel;html=1;align=center;verticalAlign=middle;resizable=0;points=[];fontColor=light-dark(#46495D,#46495D);labelBackgroundColor=light-dark(#D9D9D9,#DBDBDB);" parent="PbpaKHzW4S6jHEZwpi4d-30" vertex="1" connectable="0">
          <mxGeometry x="0.32" relative="1" as="geometry">
            <mxPoint x="-32" as="offset" />
          </mxGeometry>
        </mxCell>
        <mxCell id="PbpaKHzW4S6jHEZwpi4d-34" value="" style="endArrow=classic;html=1;rounded=1;fontSize=12;startSize=8;endSize=8;curved=1;labelBackgroundColor=none;strokeColor=#788AA3;fontColor=default;verticalAlign=middle;exitX=0.983;exitY=0.456;exitDx=0;exitDy=0;exitPerimeter=0;entryX=-0.01;entryY=0.323;entryDx=0;entryDy=0;entryPerimeter=0;" parent="1" target="UK6CqygBZyEi8A3h2Iro-12" edge="1" source="PbpaKHzW4S6jHEZwpi4d-8">
          <mxGeometry width="50" height="50" relative="1" as="geometry">
            <mxPoint x="81" y="240" as="sourcePoint" />
            <mxPoint x="401" y="240" as="targetPoint" />
          </mxGeometry>
        </mxCell>
        <mxCell id="PbpaKHzW4S6jHEZwpi4d-35" value="rc" style="edgeLabel;html=1;align=center;verticalAlign=middle;resizable=0;points=[];fontColor=light-dark(#46495D,#46495D);labelBackgroundColor=light-dark(#D9D9D9,#DBDBDB);" parent="PbpaKHzW4S6jHEZwpi4d-34" vertex="1" connectable="0">
          <mxGeometry x="0.32" relative="1" as="geometry">
            <mxPoint x="-35" as="offset" />
          </mxGeometry>
        </mxCell>
        <mxCell id="PbpaKHzW4S6jHEZwpi4d-36" value="" style="endArrow=classic;html=1;rounded=1;fontSize=12;startSize=8;endSize=8;curved=1;labelBackgroundColor=none;strokeColor=#788AA3;fontColor=default;verticalAlign=middle;entryX=-0.027;entryY=0.127;entryDx=0;entryDy=0;entryPerimeter=0;exitX=1.01;exitY=0.179;exitDx=0;exitDy=0;exitPerimeter=0;" parent="1" edge="1" target="UK6CqygBZyEi8A3h2Iro-12" source="PbpaKHzW4S6jHEZwpi4d-8">
          <mxGeometry width="50" height="50" relative="1" as="geometry">
            <mxPoint x="81" y="180" as="sourcePoint" />
            <mxPoint x="397.3599999999999" y="180.19999999999993" as="targetPoint" />
          </mxGeometry>
        </mxCell>
        <mxCell id="PbpaKHzW4S6jHEZwpi4d-37" value="P4" style="edgeLabel;html=1;align=center;verticalAlign=middle;resizable=0;points=[];fontColor=light-dark(#46495D,#46495D);labelBackgroundColor=light-dark(#D9D9D9,#DBDBDB);" parent="PbpaKHzW4S6jHEZwpi4d-36" vertex="1" connectable="0">
          <mxGeometry x="0.32" relative="1" as="geometry">
            <mxPoint x="-35" y="1" as="offset" />
          </mxGeometry>
        </mxCell>
        <mxCell id="PbpaKHzW4S6jHEZwpi4d-38" value="" style="endArrow=classic;html=1;rounded=1;fontSize=12;startSize=8;endSize=8;curved=1;labelBackgroundColor=none;strokeColor=#788AA3;fontColor=default;verticalAlign=middle;entryX=-0.03;entryY=0.419;entryDx=0;entryDy=0;entryPerimeter=0;exitX=0.997;exitY=0.59;exitDx=0;exitDy=0;exitPerimeter=0;" parent="1" edge="1" target="UK6CqygBZyEi8A3h2Iro-12" source="PbpaKHzW4S6jHEZwpi4d-8">
          <mxGeometry width="50" height="50" relative="1" as="geometry">
            <mxPoint x="81" y="270" as="sourcePoint" />
            <mxPoint x="401" y="270.00000000000006" as="targetPoint" />
          </mxGeometry>
        </mxCell>
        <mxCell id="PbpaKHzW4S6jHEZwpi4d-39" value="volumetric_flow_rate" style="edgeLabel;html=1;align=center;verticalAlign=middle;resizable=0;points=[];fontColor=light-dark(#46495D,#46495D);labelBackgroundColor=light-dark(#D9D9D9,#DBDBDB);" parent="PbpaKHzW4S6jHEZwpi4d-38" vertex="1" connectable="0">
          <mxGeometry x="0.32" relative="1" as="geometry">
            <mxPoint x="-32" as="offset" />
          </mxGeometry>
        </mxCell>
        <mxCell id="PbpaKHzW4S6jHEZwpi4d-41" value="" style="endArrow=classic;html=1;rounded=1;fontSize=12;startSize=8;endSize=8;curved=1;labelBackgroundColor=none;strokeColor=#788AA3;fontColor=default;verticalAlign=middle;entryX=-0.044;entryY=0.5;entryDx=0;entryDy=0;exitX=1.009;exitY=0.063;exitDx=0;exitDy=0;exitPerimeter=0;entryPerimeter=0;" parent="1" target="PbpaKHzW4S6jHEZwpi4d-42" edge="1" source="UK6CqygBZyEi8A3h2Iro-12">
          <mxGeometry width="50" height="50" relative="1" as="geometry">
            <mxPoint x="471" y="159" as="sourcePoint" />
            <mxPoint x="480" y="159" as="targetPoint" />
          </mxGeometry>
        </mxCell>
        <mxCell id="PbpaKHzW4S6jHEZwpi4d-42" value="m_dot" style="rounded=1;whiteSpace=wrap;html=1;labelBackgroundColor=none;fillColor=light-dark(#D4E1F5,#9AC7BF);strokeColor=#788AA3;fontColor=light-dark(#46495D,#46495D);" parent="1" vertex="1">
          <mxGeometry x="451" y="149" width="50" height="20" as="geometry" />
        </mxCell>
        <mxCell id="PbpaKHzW4S6jHEZwpi4d-53" value="" style="group" parent="1" vertex="1" connectable="0">
          <mxGeometry x="441" y="20" width="195" height="90" as="geometry" />
        </mxCell>
        <mxCell id="PbpaKHzW4S6jHEZwpi4d-54" value="" style="shape=datastore;whiteSpace=wrap;html=1;fillColor=#C3ABD0;strokeColor=#868686;" parent="PbpaKHzW4S6jHEZwpi4d-53" vertex="1">
          <mxGeometry x="45" width="60" height="60" as="geometry" />
        </mxCell>
        <mxCell id="PbpaKHzW4S6jHEZwpi4d-55" value="ideal_gas_properties.db" style="rounded=0;whiteSpace=wrap;html=1;strokeColor=none;fillColor=none;fontColor=#868686;" parent="PbpaKHzW4S6jHEZwpi4d-53" vertex="1">
          <mxGeometry x="22.5" y="70" width="150" height="20" as="geometry" />
        </mxCell>
        <mxCell id="PbpaKHzW4S6jHEZwpi4d-56" value="" style="endArrow=none;dashed=1;html=1;rounded=0;strokeColor=#868686;entryX=0.555;entryY=-0.008;entryDx=0;entryDy=0;exitX=0;exitY=0.7;exitDx=0;exitDy=0;entryPerimeter=0;" parent="1" source="PbpaKHzW4S6jHEZwpi4d-54" target="UK6CqygBZyEi8A3h2Iro-12" edge="1">
          <mxGeometry width="50" height="50" relative="1" as="geometry">
            <mxPoint x="493" y="70" as="sourcePoint" />
            <mxPoint x="416" y="140" as="targetPoint" />
          </mxGeometry>
        </mxCell>
        <mxCell id="UK6CqygBZyEi8A3h2Iro-1" value="" style="endArrow=classic;html=1;rounded=1;fontSize=12;startSize=8;endSize=8;curved=1;labelBackgroundColor=none;strokeColor=#788AA3;fontColor=default;verticalAlign=middle;entryX=-0.017;entryY=0.197;entryDx=0;entryDy=0;entryPerimeter=0;exitX=0.99;exitY=0.27;exitDx=0;exitDy=0;exitPerimeter=0;" parent="1" target="UK6CqygBZyEi8A3h2Iro-12" edge="1" source="PbpaKHzW4S6jHEZwpi4d-8">
          <mxGeometry width="50" height="50" relative="1" as="geometry">
            <mxPoint x="81" y="200" as="sourcePoint" />
            <mxPoint x="199.74" y="200.00000000000006" as="targetPoint" />
          </mxGeometry>
        </mxCell>
        <mxCell id="UK6CqygBZyEi8A3h2Iro-2" value="T1" style="edgeLabel;html=1;align=center;verticalAlign=middle;resizable=0;points=[];fontColor=light-dark(#46495D,#46495D);labelBackgroundColor=light-dark(#D9D9D9,#DBDBDB);" parent="UK6CqygBZyEi8A3h2Iro-1" vertex="1" connectable="0">
          <mxGeometry x="0.32" relative="1" as="geometry">
            <mxPoint x="-31" as="offset" />
          </mxGeometry>
        </mxCell>
        <mxCell id="UK6CqygBZyEi8A3h2Iro-12" value="Brayton Cycle" style="rounded=1;whiteSpace=wrap;html=1;labelBackgroundColor=none;fillColor=light-dark(#A9C4EB,#A9C4EB);strokeColor=#788AA3;fontColor=light-dark(#46495D,#333333);" parent="1" vertex="1">
          <mxGeometry x="331" y="140" width="70" height="310" as="geometry" />
        </mxCell>
        <mxCell id="QhyKsPdQeMrUCFwZ5U9G-18" value="" style="endArrow=classic;html=1;rounded=1;fontSize=12;startSize=8;endSize=8;curved=1;labelBackgroundColor=none;strokeColor=#788AA3;fontColor=default;verticalAlign=middle;exitX=1.004;exitY=0.548;exitDx=0;exitDy=0;exitPerimeter=0;entryX=0;entryY=0.5;entryDx=0;entryDy=0;" parent="1" source="UK6CqygBZyEi8A3h2Iro-12" target="QhyKsPdQeMrUCFwZ5U9G-19" edge="1">
          <mxGeometry width="50" height="50" relative="1" as="geometry">
            <mxPoint x="501" y="310" as="sourcePoint" />
            <mxPoint x="521" y="310" as="targetPoint" />
          </mxGeometry>
        </mxCell>
        <mxCell id="QhyKsPdQeMrUCFwZ5U9G-19" value="Wnet_work_based" style="rounded=1;whiteSpace=wrap;html=1;labelBackgroundColor=none;fillColor=light-dark(#D4E1F5,#9AC7BF);strokeColor=#788AA3;fontColor=light-dark(#46495D,#46495D);" parent="1" vertex="1">
          <mxGeometry x="451" y="300" width="120" height="20" as="geometry" />
        </mxCell>
        <mxCell id="QhyKsPdQeMrUCFwZ5U9G-23" value="Wnet_heat_based" style="rounded=1;whiteSpace=wrap;html=1;labelBackgroundColor=none;fillColor=light-dark(#D4E1F5,#9AC7BF);strokeColor=#788AA3;fontColor=light-dark(#46495D,#46495D);" parent="1" vertex="1">
          <mxGeometry x="451" y="324" width="120" height="20" as="geometry" />
        </mxCell>
        <mxCell id="QhyKsPdQeMrUCFwZ5U9G-25" value="bwr" style="rounded=1;whiteSpace=wrap;html=1;labelBackgroundColor=none;fillColor=light-dark(#D4E1F5,#9AC7BF);strokeColor=#788AA3;fontColor=light-dark(#46495D,#46495D);" parent="1" vertex="1">
          <mxGeometry x="451" y="350" width="50" height="20" as="geometry" />
        </mxCell>
        <mxCell id="QhyKsPdQeMrUCFwZ5U9G-31" value="thermal_effiency" style="rounded=1;whiteSpace=wrap;html=1;labelBackgroundColor=none;fillColor=light-dark(#D4E1F5,#9AC7BF);strokeColor=#788AA3;fontColor=light-dark(#46495D,#46495D);" parent="1" vertex="1">
          <mxGeometry x="451" y="380" width="120" height="20" as="geometry" />
        </mxCell>
        <mxCell id="QhyKsPdQeMrUCFwZ5U9G-33" value="power_output" style="rounded=1;whiteSpace=wrap;html=1;labelBackgroundColor=none;fillColor=light-dark(#D4E1F5,#9AC7BF);strokeColor=#788AA3;fontColor=light-dark(#46495D,#46495D);" parent="1" vertex="1">
          <mxGeometry x="451" y="410" width="120" height="20" as="geometry" />
        </mxCell>
        <mxCell id="Z81KaxpP7HEMf0QDX8c_-1" value="Wc" style="rounded=1;whiteSpace=wrap;html=1;labelBackgroundColor=none;fillColor=light-dark(#D4E1F5,#9AC7BF);strokeColor=#788AA3;fontColor=light-dark(#46495D,#46495D);" parent="1" vertex="1">
          <mxGeometry x="451" y="179" width="50" height="20" as="geometry" />
        </mxCell>
        <mxCell id="Z81KaxpP7HEMf0QDX8c_-4" value="Wt" style="rounded=1;whiteSpace=wrap;html=1;labelBackgroundColor=none;fillColor=light-dark(#D4E1F5,#9AC7BF);strokeColor=#788AA3;fontColor=light-dark(#46495D,#46495D);" parent="1" vertex="1">
          <mxGeometry x="451" y="210" width="50" height="20" as="geometry" />
        </mxCell>
        <mxCell id="Z81KaxpP7HEMf0QDX8c_-7" value="Qin" style="rounded=1;whiteSpace=wrap;html=1;labelBackgroundColor=none;fillColor=light-dark(#D4E1F5,#9AC7BF);strokeColor=#788AA3;fontColor=light-dark(#46495D,#46495D);" parent="1" vertex="1">
          <mxGeometry x="451" y="240" width="50" height="20" as="geometry" />
        </mxCell>
        <mxCell id="Z81KaxpP7HEMf0QDX8c_-9" value="Qout" style="rounded=1;whiteSpace=wrap;html=1;labelBackgroundColor=none;fillColor=light-dark(#D4E1F5,#9AC7BF);strokeColor=#788AA3;fontColor=light-dark(#46495D,#46495D);" parent="1" vertex="1">
          <mxGeometry x="451" y="270" width="50" height="20" as="geometry" />
        </mxCell>
        <mxCell id="ZeFgxJd7Y2cIf3lmYooC-1" value="" style="endArrow=classic;html=1;rounded=1;fontSize=12;startSize=8;endSize=8;curved=1;labelBackgroundColor=none;strokeColor=#788AA3;fontColor=default;verticalAlign=middle;exitX=1.018;exitY=0.157;exitDx=0;exitDy=0;exitPerimeter=0;entryX=0;entryY=0.5;entryDx=0;entryDy=0;" parent="1" edge="1" target="Z81KaxpP7HEMf0QDX8c_-1" source="UK6CqygBZyEi8A3h2Iro-12">
          <mxGeometry width="50" height="50" relative="1" as="geometry">
            <mxPoint x="471" y="188.57999999999998" as="sourcePoint" />
            <mxPoint x="521" y="189" as="targetPoint" />
          </mxGeometry>
        </mxCell>
        <mxCell id="ZeFgxJd7Y2cIf3lmYooC-2" value="" style="endArrow=classic;html=1;rounded=1;fontSize=12;startSize=8;endSize=8;curved=1;labelBackgroundColor=none;strokeColor=#788AA3;fontColor=default;verticalAlign=middle;exitX=1.018;exitY=0.257;exitDx=0;exitDy=0;exitPerimeter=0;entryX=0;entryY=0.5;entryDx=0;entryDy=0;" parent="1" edge="1" target="Z81KaxpP7HEMf0QDX8c_-4" source="UK6CqygBZyEi8A3h2Iro-12">
          <mxGeometry width="50" height="50" relative="1" as="geometry">
            <mxPoint x="470" y="220" as="sourcePoint" />
            <mxPoint x="511" y="220" as="targetPoint" />
          </mxGeometry>
        </mxCell>
        <mxCell id="ZeFgxJd7Y2cIf3lmYooC-3" value="" style="endArrow=classic;html=1;rounded=1;fontSize=12;startSize=8;endSize=8;curved=1;labelBackgroundColor=none;strokeColor=#788AA3;fontColor=default;verticalAlign=middle;exitX=1.023;exitY=0.355;exitDx=0;exitDy=0;exitPerimeter=0;entryX=0;entryY=0.5;entryDx=0;entryDy=0;" parent="1" edge="1" target="Z81KaxpP7HEMf0QDX8c_-7" source="UK6CqygBZyEi8A3h2Iro-12">
          <mxGeometry width="50" height="50" relative="1" as="geometry">
            <mxPoint x="470" y="250" as="sourcePoint" />
            <mxPoint x="521" y="250" as="targetPoint" />
          </mxGeometry>
        </mxCell>
        <mxCell id="ZeFgxJd7Y2cIf3lmYooC-4" value="" style="endArrow=classic;html=1;rounded=1;fontSize=12;startSize=8;endSize=8;curved=1;labelBackgroundColor=none;strokeColor=#788AA3;fontColor=default;verticalAlign=middle;entryX=0;entryY=0.5;entryDx=0;entryDy=0;exitX=1.029;exitY=0.45;exitDx=0;exitDy=0;exitPerimeter=0;" parent="1" edge="1" target="Z81KaxpP7HEMf0QDX8c_-9" source="UK6CqygBZyEi8A3h2Iro-12">
          <mxGeometry width="50" height="50" relative="1" as="geometry">
            <mxPoint x="471" y="280" as="sourcePoint" />
            <mxPoint x="527" y="280" as="targetPoint" />
          </mxGeometry>
        </mxCell>
        <mxCell id="ZeFgxJd7Y2cIf3lmYooC-5" value="" style="endArrow=classic;html=1;rounded=1;fontSize=12;startSize=8;endSize=8;curved=1;labelBackgroundColor=none;strokeColor=#788AA3;fontColor=default;verticalAlign=middle;exitX=1.023;exitY=0.625;exitDx=0;exitDy=0;exitPerimeter=0;entryX=0;entryY=0.5;entryDx=0;entryDy=0;" parent="1" edge="1" target="QhyKsPdQeMrUCFwZ5U9G-23" source="UK6CqygBZyEi8A3h2Iro-12">
          <mxGeometry width="50" height="50" relative="1" as="geometry">
            <mxPoint x="411" y="334" as="sourcePoint" />
            <mxPoint x="521" y="334" as="targetPoint" />
          </mxGeometry>
        </mxCell>
        <mxCell id="ZeFgxJd7Y2cIf3lmYooC-6" value="" style="endArrow=classic;html=1;rounded=1;fontSize=12;startSize=8;endSize=8;curved=1;labelBackgroundColor=none;strokeColor=#788AA3;fontColor=default;verticalAlign=middle;exitX=1.001;exitY=0.71;exitDx=0;exitDy=0;exitPerimeter=0;entryX=0;entryY=0.5;entryDx=0;entryDy=0;" parent="1" edge="1" target="QhyKsPdQeMrUCFwZ5U9G-25" source="UK6CqygBZyEi8A3h2Iro-12">
          <mxGeometry width="50" height="50" relative="1" as="geometry">
            <mxPoint x="471" y="360" as="sourcePoint" />
            <mxPoint x="521" y="360" as="targetPoint" />
          </mxGeometry>
        </mxCell>
        <mxCell id="ZeFgxJd7Y2cIf3lmYooC-7" value="" style="endArrow=classic;html=1;rounded=1;fontSize=12;startSize=8;endSize=8;curved=1;labelBackgroundColor=none;strokeColor=#788AA3;fontColor=default;verticalAlign=middle;exitX=1.015;exitY=0.804;exitDx=0;exitDy=0;exitPerimeter=0;entryX=0;entryY=0.5;entryDx=0;entryDy=0;" parent="1" edge="1" target="QhyKsPdQeMrUCFwZ5U9G-31" source="UK6CqygBZyEi8A3h2Iro-12">
          <mxGeometry width="50" height="50" relative="1" as="geometry">
            <mxPoint x="471" y="390" as="sourcePoint" />
            <mxPoint x="521" y="389" as="targetPoint" />
          </mxGeometry>
        </mxCell>
        <mxCell id="ZeFgxJd7Y2cIf3lmYooC-8" value="" style="endArrow=classic;html=1;rounded=1;fontSize=12;startSize=8;endSize=8;curved=1;labelBackgroundColor=none;strokeColor=#788AA3;fontColor=default;verticalAlign=middle;exitX=1.004;exitY=0.907;exitDx=0;exitDy=0;exitPerimeter=0;entryX=0;entryY=0.5;entryDx=0;entryDy=0;" parent="1" edge="1" target="QhyKsPdQeMrUCFwZ5U9G-33" source="UK6CqygBZyEi8A3h2Iro-12">
          <mxGeometry width="50" height="50" relative="1" as="geometry">
            <mxPoint x="471" y="420" as="sourcePoint" />
            <mxPoint x="521" y="420" as="targetPoint" />
          </mxGeometry>
        </mxCell>
      </root>
    </mxGraphModel>
  </diagram>
</mxfile>
